<?xml version="1.0" standalone="no"?>
<!DOCTYPE svg PUBLIC "-//W3C//DTD SVG 20010904//EN"
 "http://www.w3.org/TR/2001/REC-SVG-20010904/DTD/svg10.dtd">
<svg version="1.0" xmlns="http://www.w3.org/2000/svg"
 width="700.000000pt" height="700.000000pt" viewBox="0 0 700.000000 700.000000"
 preserveAspectRatio="xMidYMid meet">
<metadata>
Created by potrace 1.14, written by Peter Selinger 2001-2017
</metadata>
<g transform="translate(0.000000,700.000000) scale(0.100000,-0.100000)"
fill="#000000" stroke="none">
<path d="M3252 6462 l-211 -2 50 -103 c50 -103 68 -179 55 -232 -17 -67 -188
-209 -422 -351 -184 -111 -279 -177 -299 -208 -9 -13 -17 -41 -20 -62 -2 -21
-6 -57 -9 -79 -5 -42 -15 -177 -21 -285 -2 -36 -6 -118 -10 -182 l-7 -118 29
-1 c15 -1 44 -3 63 -4 249 -22 401 -22 570 -1 41 6 132 32 191 56 126 51 256
154 351 277 17 23 33 41 35 39 3 -2 13 -54 48 -246 9 -49 17 -85 21 -103 5
-16 29 -17 377 -15 l372 3 -1 130 c0 126 -10 314 -18 365 -3 14 -7 54 -11 89
-3 36 -7 67 -9 70 -2 3 -6 29 -10 56 -24 204 -141 613 -225 785 -57 118 -48
115 -344 117 -139 2 -270 4 -293 5 -22 2 -135 2 -252 0z m130 -624 c178 -357
147 -483 -151 -612 -47 -20 -88 -36 -92 -36 -4 0 -3 15 2 33 8 28 95 420 105
472 23 120 58 275 63 275 4 0 36 -60 73 -132z"/>
<path d="M155 6443 c-43 -42 -56 -749 -19 -1028 2 -16 6 -55 9 -85 3 -30 8
-62 10 -70 2 -8 7 -31 10 -50 19 -126 60 -289 78 -317 44 -65 47 -66 394 -69
307 -2 315 -1 322 18 7 20 6 151 -2 275 -6 83 16 132 75 167 38 22 157 52 319
81 86 15 432 113 537 152 45 17 106 77 123 121 9 24 6 159 -6 262 -2 19 -7 62
-10 95 -10 112 -16 170 -20 200 -2 17 -9 81 -16 143 l-12 112 -61 0 c-33 0
-434 1 -890 3 -626 1 -832 -1 -841 -10z m1033 -508 c38 -82 84 -181 102 -219
17 -37 28 -72 23 -76 -13 -12 -174 -72 -218 -81 -22 -5 -63 -11 -91 -15 -50
-6 -51 -5 -49 17 1 13 6 60 9 104 4 44 9 99 12 123 2 23 6 61 9 85 2 23 7 83
11 132 6 81 10 127 13 147 1 4 16 11 34 16 37 10 20 37 145 -233z"/>
<path d="M4550 6453 c0 -2 20 -34 44 -71 100 -154 161 -321 183 -502 10 -80
10 -408 0 -511 -13 -144 -20 -274 -21 -394 l-1 -119 35 -8 c19 -5 46 -11 60
-14 14 -3 39 -9 57 -14 18 -4 58 -7 89 -7 50 2 59 5 83 35 41 49 48 113 50
467 1 176 3 321 5 322 1 2 11 -5 22 -15 10 -9 73 -58 139 -107 66 -49 122 -92
125 -96 14 -16 462 -347 570 -421 141 -97 172 -114 242 -134 43 -13 331 -74
351 -74 4 0 7 373 7 829 l0 830 -181 0 -181 -1 7 -64 c3 -36 8 -73 10 -82 1
-9 6 -55 10 -102 4 -47 8 -87 10 -90 2 -3 6 -43 10 -90 4 -47 9 -93 10 -102 2
-9 6 -45 10 -80 3 -35 8 -76 10 -93 15 -104 16 -147 3 -139 -95 55 -261 188
-374 300 -113 112 -194 204 -321 369 -56 72 -113 141 -127 155 l-27 24 -454 2
c-250 1 -455 -1 -455 -3z"/>
<path d="M2530 4382 c-32 -5 -67 -37 -91 -84 -17 -34 -20 -68 -25 -330 -13
-661 -12 -951 4 -996 24 -72 92 -128 197 -162 22 -7 41 -13 42 -12 2 1 22 -6
45 -14 37 -13 72 -22 148 -39 8 -2 36 -8 62 -14 126 -29 300 -45 478 -45 120
0 327 11 339 18 3 2 33 7 66 11 77 8 210 39 266 62 127 49 195 142 215 290 3
26 8 51 10 54 14 24 25 1231 11 1246 -3 3 -79 5 -169 5 -245 -1 -230 1 -224
-19 2 -10 8 -76 11 -148 4 -71 8 -146 10 -165 2 -19 6 -105 10 -190 4 -85 9
-173 11 -195 1 -22 5 -146 8 -275 8 -327 -9 -392 -122 -447 -53 -26 -63 -27
-192 -27 -204 1 -353 36 -408 97 -30 32 -49 87 -47 135 3 62 16 223 20 240 1
10 6 64 10 122 4 58 8 112 10 120 1 8 6 60 10 115 4 55 9 118 10 140 2 22 7
81 10 130 4 50 8 106 10 125 2 19 6 80 10 135 4 55 8 105 9 110 1 9 -693 16
-754 7z"/>
<path d="M4818 4380 c-51 -6 -89 -29 -122 -73 -18 -24 -19 -41 -18 -174 2
-175 10 -474 17 -663 3 -74 7 -205 10 -290 13 -359 15 -372 78 -410 30 -18 51
-19 347 -17 l315 2 3 297 2 298 52 -32 c114 -70 198 -189 264 -373 32 -89 66
-156 91 -177 13 -10 101 -14 428 -16 l413 -4 -20 59 c-21 60 -67 207 -73 233
-2 8 -13 41 -24 73 -51 146 -126 239 -220 277 -58 22 -61 23 -231 56 -179 34
-184 35 -189 40 -7 7 -3 8 134 54 256 85 330 131 367 226 39 99 27 185 -69
494 -20 63 -38 117 -40 120 -6 7 -1456 6 -1515 0z m724 -284 c13 -18 42 -61
66 -94 23 -34 42 -65 42 -71 0 -5 4 -11 8 -13 15 -6 52 -107 52 -142 0 -64
-84 -117 -224 -142 -34 -6 -38 -5 -33 12 3 11 8 48 12 84 3 36 8 88 10 115 3
28 7 61 10 75 4 23 17 167 18 198 1 21 16 13 39 -22z"/>
<path d="M234 4372 l-31 -3 1 -764 c1 -755 1 -764 22 -792 11 -15 37 -36 58
-47 36 -18 71 -18 717 -17 373 1 698 4 721 7 67 8 128 43 153 89 24 44 75 281
75 349 0 27 -5 43 -12 43 -12 1 -125 11 -193 18 -40 4 -131 -21 -164 -44 -14
-11 -49 -52 -77 -93 -58 -84 -97 -110 -196 -133 -129 -29 -276 -14 -330 34
-26 23 -29 33 -32 93 -6 126 39 261 102 304 60 41 210 55 332 29 86 -18 159
-4 188 34 18 25 82 191 82 213 0 4 -138 8 -307 7 -170 0 -316 0 -326 1 -16 0
-16 2 -3 28 15 29 23 79 31 199 6 80 15 111 47 156 44 62 200 103 295 78 84
-23 136 -93 149 -202 3 -30 8 -57 10 -61 2 -3 50 -6 107 -6 225 0 261 49 282
386 l6 92 -33 1 c-161 2 -1650 3 -1674 1z"/>
<path d="M2532 2294 c-124 -28 -216 -110 -255 -228 -23 -67 -17 -210 13 -293
58 -165 147 -260 467 -502 264 -199 332 -286 341 -434 l5 -78 -64 6 c-91 9
-178 24 -224 40 -50 16 -124 44 -150 56 -11 5 -63 24 -117 43 -356 128 -470
93 -517 -156 -6 -34 -5 -48 3 -49 6 -1 20 -3 31 -4 11 -2 43 -6 70 -9 28 -3
66 -8 85 -11 19 -2 55 -7 80 -10 104 -13 171 -29 287 -66 164 -52 196 -58 323
-60 221 -3 438 84 700 282 41 31 88 69 104 85 31 31 67 103 72 144 4 36 -14
98 -41 138 -48 70 -233 251 -390 381 -55 46 -111 93 -125 105 -65 54 -119 93
-296 211 -104 70 -191 129 -193 131 -2 2 4 19 13 36 l18 33 191 -2 c106 -1
195 -2 198 -2 4 -1 10 -22 15 -48 4 -27 8 -51 10 -55 1 -5 2 -16 3 -25 3 -36
17 -41 116 -48 207 -15 260 32 300 260 3 17 8 55 11 86 l5 55 -521 0 c-336 -1
-537 -5 -568 -12z"/>
<path d="M908 2262 c-71 -1 -128 -4 -128 -5 0 -1 15 -40 33 -87 41 -105 46
-173 18 -228 -42 -82 -188 -195 -426 -330 l-120 -68 -41 -80 c-22 -45 -46
-107 -54 -140 -8 -32 -14 -61 -15 -64 -25 -94 -21 -302 7 -354 35 -65 58 -70
343 -70 186 -1 220 2 294 22 132 34 204 76 298 168 112 111 134 114 149 18 3
-20 9 -47 14 -58 4 -12 8 -24 8 -29 0 -4 6 -32 13 -62 l12 -55 196 0 c108 0
228 -2 266 -3 87 -4 129 8 162 47 24 28 25 35 20 106 -5 66 -150 851 -161 868
-2 4 -7 24 -10 44 -6 41 -44 213 -52 241 -9 29 -55 77 -93 96 -28 15 -62 19
-151 21 -252 4 -461 5 -582 2z m171 -587 c132 -244 118 -333 -66 -442 -54 -31
-153 -83 -159 -83 -4 0 -3 12 1 28 4 15 9 37 11 49 2 12 20 93 40 180 20 87
47 208 60 268 36 161 32 156 61 99 14 -27 37 -71 52 -99z"/>
<path d="M5700 2203 c91 -100 108 -178 57 -265 -43 -72 -150 -159 -309 -250
-159 -92 -211 -133 -272 -213 -55 -71 -67 -134 -71 -355 -2 -165 2 -186 47
-226 39 -36 63 -44 160 -51 388 -28 580 24 755 204 75 77 97 81 114 21 6 -24
15 -54 19 -68 5 -14 16 -55 26 -92 9 -38 22 -68 28 -69 36 -1 401 -1 451 1 68
3 132 33 162 78 18 26 20 42 10 87 -3 11 -8 40 -12 65 -8 49 -12 72 -20 110
-3 14 -10 51 -15 82 -6 32 -13 70 -16 84 -3 14 -22 112 -44 217 -21 106 -41
203 -44 217 -2 14 -14 68 -26 120 -12 52 -23 104 -25 115 -33 153 -39 168 -67
195 -16 15 -48 33 -71 38 -26 7 -207 11 -466 12 l-424 1 53 -58z m297 -511
c85 -136 112 -253 77 -328 -24 -50 -93 -106 -187 -153 -87 -43 -109 -49 -102
-28 2 6 6 23 9 37 2 14 12 59 21 100 9 41 18 86 21 100 11 55 75 346 81 364 5
20 6 20 20 0 8 -10 35 -52 60 -92z"/>
<path d="M4030 2236 c-3 -130 2 -1381 5 -1386 3 -4 134 -7 292 -6 387 3 368
-10 388 271 2 33 7 103 10 155 4 52 8 115 10 140 2 25 6 90 10 145 3 55 8 134
10 175 3 41 7 111 9 155 3 44 8 127 12 185 3 58 7 121 8 140 l1 35 -377 1
c-278 2 -378 -1 -378 -10z"/>
</g>
</svg>
