<svg width="30" height="30" fill="none" xmlns="http://www.w3.org/2000/svg"><path d="M5.878 0C2.645 0 0 2.645 0 5.878v18.244C0 27.355 2.645 30 5.878 30h18.244C27.355 30 30 27.355 30 24.122V5.878C30 2.645 27.355 0 24.122 0H5.878zm3.366 6.769h5.917c1.23 0 2.163.045 2.796.141a5.32 5.32 0 011.782.588c.599.323 1.049.757 1.345 1.295.296.54.446 1.163.446 1.87 0 .817-.204 1.543-.615 2.181a3.625 3.625 0 01-1.69 1.41v.087c1.033.22 1.862.661 2.484 1.333.622.673.933 1.578.933 2.716 0 .832-.157 1.566-.472 2.196a4.494 4.494 0 01-1.271 1.563c-.63.495-1.32.844-2.078 1.056-.753.21-1.709.316-2.872.316H9.244V6.769zm4.185 3.07v3.546h.53c.718 0 1.225-.008 1.513-.023a2.44 2.44 0 00.896-.234c.333-.157.568-.376.694-.652.127-.28.192-.604.192-.969 0-.272-.069-.549-.208-.833a1.244 1.244 0 00-.648-.619c-.276-.123-.603-.187-.984-.2-.38-.011-.944-.015-1.693-.015h-.292zm0 6.415v4.194h.227a74.71 74.71 0 002.27-.023 3.532 3.532 0 001.281-.303c.385-.165.661-.407.839-.727a2.2 2.2 0 00.264-1.082c0-.52-.103-.922-.314-1.214-.21-.296-.526-.515-.945-.665-.254-.1-.607-.154-1.053-.165a76.738 76.738 0 00-1.793-.015h-.776z" fill="#C92140"/></svg>