<svg width="40" height="30" fill="none" xmlns="http://www.w3.org/2000/svg"><rect width="40" height="30" rx="5" fill="#C92140"/><path d="M18.702 15.934c1.102-.885 1.809-2.096 1.809-3.615v-.66c0-2.669-2.172-4.63-4.851-4.63L8 7l.005 14.972 3.618.028v-5.082h3.718L17.766 22H22l-3.298-6.066zm-1.888-3.797c0 1.063-.866 1.666-1.933 1.666h-3.258v-3.596h3.258c1.067 0 1.933.747 1.933 1.81v.12zM27.872 11v6.296c0 1.037-.36 1.739-1.348 1.739h-.049c-.988 0-1.348-.702-1.348-1.74V11H22v6.536C22 20.001 23.027 22 26.149 22h.6C30.037 22 31 20.001 31 17.536V11h-3.128z" fill="#fff"/></svg>