<svg width="32" height="32" fill="none" xmlns="http://www.w3.org/2000/svg"><path d="M31.294 15.291h.008a.697.697 0 00.695-.762A16.042 16.042 0 0017.474.002a.698.698 0 00-.762.704c.121 10.253 1.474 14.442 14.582 14.585zm0 1.417c-13.108.143-14.46 4.333-14.582 14.585a.699.699 0 00.763.704A16.04 16.04 0 0031.997 17.47a.698.698 0 00-.183-.537.737.737 0 00-.52-.225zM14.479.006A16.049 16.049 0 00.003 14.53a.698.698 0 00.696.761h.009C13.772 15.142 15.12 10.955 15.244.71a.7.7 0 00-.765-.703zM.707 16.707c-.217-.024-.388.08-.521.225a.7.7 0 00-.183.537 16.05 16.05 0 0014.476 14.525.7.7 0 00.764-.704C15.12 21.044 13.773 16.858.707 16.706z" fill="#C92140"/></svg>