<svg width="43" height="30" fill="none" xmlns="http://www.w3.org/2000/svg"><path d="M42.125 4.717a5.362 5.362 0 00-1.387-2.394A5.388 5.388 0 0038.34.936C34.975.015 21.515 0 21.515 0S8.057-.015 4.69.865a5.504 5.504 0 00-2.396 1.41A5.477 5.477 0 00.896 4.671C.009 8.025 0 14.979 0 14.979s-.009 6.988.872 10.306a5.374 5.374 0 003.788 3.78c3.399.92 16.823.935 16.823.935s13.46.015 16.824-.863a5.409 5.409 0 002.402-1.385 5.38 5.38 0 001.395-2.39c.89-3.35.896-10.302.896-10.302s.043-6.99-.875-10.343zM17.21 21.42l.011-12.846 11.187 6.434L17.21 21.42z" fill="#C92140"/></svg>