<svg width="144" height="283" fill="none" xmlns="http://www.w3.org/2000/svg"><path d="M1.501 86.67l.41 1.353.532-1.31L34.82 7.004 23.606 92.05l-.186 1.415 1.029-.989L86.83 32.498l-45.295 73.343-.76 1.229 1.357-.497 81.585-29.886-71.531 48.973-1.2.822 1.452.089 86.688 5.355-85.41 16.151-1.426.27 1.29.666 76.821 39.669-84.538-19.467-1.4-.323.897 1.122 53.676 67.144-69.05-51.739-1.136-.852.352 1.376 21.234 83.019L8.83 193.89l-.685-1.235-.245 1.391-14.895 84.527-6.954-85.409-.115-1.415-.797 1.175-48.44 71.403 28.888-80.962.483-1.353-1.218.761-73.593 45.932 59.718-62.521 1.003-1.05-1.436.21-86.014 12.538 80.22-33.288 1.344-.558-1.402-.386-83.579-23.014 86.87 1.693 1.444.029-1.118-.915-66.707-54.598 78.511 36.397 1.295.6-.637-1.277-38.294-76.759 56.566 64.823.93 1.065-.054-1.413-3.241-85.647L1.501 86.669z" stroke="#C92140"/></svg>