<svg version="1.0" xmlns="http://www.w3.org/2000/svg" width="933.333" height="933.333" viewBox="0 0 700 700"><path d="M325.2 53.8l-21.1.2 5 10.3c5 10.3 6.8 17.9 5.5 23.2-1.7 6.7-18.8 20.9-42.2 35.1-18.4 11.1-27.9 17.7-29.9 20.8-.9 1.3-1.7 4.1-2 6.2-.2 2.1-.6 5.7-.9 7.9-.5 4.2-1.5 17.7-2.1 28.5-.2 3.6-.6 11.8-1 18.2l-.7 11.8 2.9.1c1.5.1 4.4.3 6.3.4 24.9 2.2 40.1 2.2 57 .1 4.1-.6 13.2-3.2 19.1-5.6 12.6-5.1 25.6-15.4 35.1-27.7 1.7-2.3 3.3-4.1 3.5-3.9.3.2 1.3 5.4 4.8 24.6.9 4.9 1.7 8.5 2.1 10.3.5 1.6 2.9 1.7 37.7 1.5l37.2-.3-.1-13c0-12.6-1-31.4-1.8-36.5-.3-1.4-.7-5.4-1.1-8.9-.3-3.6-.7-6.7-.9-7-.2-.3-.6-2.9-1-5.6-2.4-20.4-14.1-61.3-22.5-78.5-5.7-11.8-4.8-11.5-34.4-11.7-13.9-.2-27-.4-29.3-.5-2.2-.2-13.5-.2-25.2 0zm13 62.4c17.8 35.7 14.7 48.3-15.1 61.2-4.7 2-8.8 3.6-9.2 3.6-.4 0-.3-1.5.2-3.3.8-2.8 9.5-42 10.5-47.2 2.3-12 5.8-27.5 6.3-27.5.4 0 3.6 6 7.3 13.2zM15.5 55.7c-4.3 4.2-5.6 74.9-1.9 102.8.2 1.6.6 5.5.9 8.5.3 3 .8 6.2 1 7 .2.8.7 3.1 1 5 1.9 12.6 6 28.9 7.8 31.7 4.4 6.5 4.7 6.6 39.4 6.9 30.7.2 31.5.1 32.2-1.8.7-2 .6-15.1-.2-27.5-.6-8.3 1.6-13.2 7.5-16.7 3.8-2.2 15.7-5.2 31.9-8.1 8.6-1.5 43.2-11.3 53.7-15.2 4.5-1.7 10.6-7.7 12.3-12.1.9-2.4.6-15.9-.6-26.2-.2-1.9-.7-6.2-1-9.5-1-11.2-1.6-17-2-20-.2-1.7-.9-8.1-1.6-14.3L194.7 55h-6.1c-3.3 0-43.4-.1-89-.3-62.6-.1-83.2.1-84.1 1zm103.3 50.8c3.8 8.2 8.4 18.1 10.2 21.9 1.7 3.7 2.8 7.2 2.3 7.6-1.3 1.2-17.4 7.2-21.8 8.1-2.2.5-6.3 1.1-9.1 1.5-5 .6-5.1.5-4.9-1.7.1-1.3.6-6 .9-10.4.4-4.4.9-9.9 1.2-12.3.2-2.3.6-6.1.9-8.5.2-2.3.7-8.3 1.1-13.2.6-8.1 1-12.7 1.3-14.7.1-.4 1.6-1.1 3.4-1.6 3.7-1 2-3.7 14.5 23.3zM455 54.7c0 .2 2 3.4 4.4 7.1 10 15.4 16.1 32.1 18.3 50.2 1 8 1 40.8 0 51.1-1.3 14.4-2 27.4-2.1 39.4l-.1 11.9 3.5.8c1.9.5 4.6 1.1 6 1.4 1.4.3 3.9.9 5.7 1.4 1.8.4 5.8.7 8.9.7 5-.2 5.9-.5 8.3-3.5 4.1-4.9 4.8-11.3 5-46.7.1-17.6.3-32.1.5-32.2.1-.2 1.1.5 2.2 1.5 1 .9 7.3 5.8 13.9 10.7 6.6 4.9 12.2 9.2 12.5 9.6 1.4 1.6 46.2 34.7 57 42.1 14.1 9.7 17.2 11.4 24.2 13.4 4.3 1.3 33.1 7.4 35.1 7.4.4 0 .7-37.3.7-82.9v-83h-18.1l-18.1.1.7 6.4c.3 3.6.8 7.3 1 8.2.1.9.6 5.5 1 10.2.4 4.7.8 8.7 1 9 .2.3.6 4.3 1 9s.9 9.3 1 10.2c.2.9.6 4.5 1 8 .3 3.5.8 7.6 1 9.3 1.5 10.4 1.6 14.7.3 13.9-9.5-5.5-26.1-18.8-37.4-30C582.1 98.2 574 89 561.3 72.5c-5.6-7.2-11.3-14.1-12.7-15.5l-2.7-2.4-45.4-.2c-25-.1-45.5.1-45.5.3zM253 261.8c-3.2.5-6.7 3.7-9.1 8.4-1.7 3.4-2 6.8-2.5 33-1.3 66.1-1.2 95.1.4 99.6 2.4 7.2 9.2 12.8 19.7 16.2 2.2.7 4.1 1.3 4.2 1.2.2-.1 2.2.6 4.5 1.4 3.7 1.3 7.2 2.2 14.8 3.9.8.2 3.6.8 6.2 1.4 12.6 2.9 30 4.5 47.8 4.5 12 0 32.7-1.1 33.9-1.8.3-.2 3.3-.7 6.6-1.1 7.7-.8 21-3.9 26.6-6.2 12.7-4.9 19.5-14.2 21.5-29 .3-2.6.8-5.1 1-5.4 1.4-2.4 2.5-123.1 1.1-124.6-.3-.3-7.9-.5-16.9-.5-24.5.1-23-.1-22.4 1.9.2 1 .8 7.6 1.1 14.8.4 7.1.8 14.6 1 16.5.2 1.9.6 10.5 1 19s.9 17.3 1.1 19.5c.1 2.2.5 14.6.8 27.5.8 32.7-.9 39.2-12.2 44.7-5.3 2.6-6.3 2.7-19.2 2.7-20.4-.1-35.3-3.6-40.8-9.7-3-3.2-4.9-8.7-4.7-13.5.3-6.2 1.6-22.3 2-24 .1-1 .6-6.4 1-12.2.4-5.8.8-11.2 1-12 .1-.8.6-6 1-11.5s.9-11.8 1-14c.2-2.2.7-8.1 1-13 .4-5 .8-10.6 1-12.5.2-1.9.6-8 1-13.5s.8-10.5.9-11c.1-.9-69.3-1.6-75.4-.7zm228.8.2c-5.1.6-8.9 2.9-12.2 7.3-1.8 2.4-1.9 4.1-1.8 17.4.2 17.5 1 47.4 1.7 66.3.3 7.4.7 20.5 1 29 1.3 35.9 1.5 37.2 7.8 41 3 1.8 5.1 1.9 34.7 1.7l31.5-.2.3-29.7.2-29.8 5.2 3.2c11.4 7 19.8 18.9 26.4 37.3 3.2 8.9 6.6 15.6 9.1 17.7 1.3 1 10.1 1.4 42.8 1.6l41.3.4-2-5.9c-2.1-6-6.7-20.7-7.3-23.3-.2-.8-1.3-4.1-2.4-7.3-5.1-14.6-12.6-23.9-22-27.7-5.8-2.2-6.1-2.3-23.1-5.6-17.9-3.4-18.4-3.5-18.9-4-.7-.7-.3-.8 13.4-5.4 25.6-8.5 33-13.1 36.7-22.6 3.9-9.9 2.7-18.5-6.9-49.4-2-6.3-3.8-11.7-4-12-.6-.7-145.6-.6-151.5 0zm72.4 28.4c1.3 1.8 4.2 6.1 6.6 9.4 2.3 3.4 4.2 6.5 4.2 7.1 0 .5.4 1.1.8 1.3 1.5.6 5.2 10.7 5.2 14.2 0 6.4-8.4 11.7-22.4 14.2-3.4.6-3.8.5-3.3-1.2.3-1.1.8-4.8 1.2-8.4.3-3.6.8-8.8 1-11.5.3-2.8.7-6.1 1-7.5.4-2.3 1.7-16.7 1.8-19.8.1-2.1 1.6-1.3 3.9 2.2zM23.4 262.8l-3.1.3.1 76.4c.1 75.5.1 76.4 2.2 79.2 1.1 1.5 3.7 3.6 5.8 4.7 3.6 1.8 7.1 1.8 71.7 1.7 37.3-.1 69.8-.4 72.1-.7 6.7-.8 12.8-4.3 15.3-8.9 2.4-4.4 7.5-28.1 7.5-34.9 0-2.7-.5-4.3-1.2-4.3-1.2-.1-12.5-1.1-19.3-1.8-4-.4-13.1 2.1-16.4 4.4-1.4 1.1-4.9 5.2-7.7 9.3-5.8 8.4-9.7 11-19.6 13.3-12.9 2.9-27.6 1.4-33-3.4-2.6-2.3-2.9-3.3-3.2-9.3-.6-12.6 3.9-26.1 10.2-30.4 6-4.1 21-5.5 33.2-2.9 8.6 1.8 15.9.4 18.8-3.4 1.8-2.5 8.2-19.1 8.2-21.3 0-.4-13.8-.8-30.7-.7-17 0-31.6 0-32.6-.1-1.6 0-1.6-.2-.3-2.8 1.5-2.9 2.3-7.9 3.1-19.9.6-8 1.5-11.1 4.7-15.6 4.4-6.2 20-10.3 29.5-7.8 8.4 2.3 13.6 9.3 14.9 20.2.3 3 .8 5.7 1 6.1.2.3 5 .6 10.7.6 22.5 0 26.1-4.9 28.2-38.6l.6-9.2-3.3-.1c-16.1-.2-165-.3-167.4-.1zm229.8 207.8c-12.4 2.8-21.6 11-25.5 22.8-2.3 6.7-1.7 21 1.3 29.3 5.8 16.5 14.7 26 46.7 50.2 26.4 19.9 33.2 28.6 34.1 43.4l.5 7.8-6.4-.6c-9.1-.9-17.8-2.4-22.4-4-5-1.6-12.4-4.4-15-5.6-1.1-.5-6.3-2.4-11.7-4.3-35.6-12.8-47-9.3-51.7 15.6-.6 3.4-.5 4.8.3 4.9.6.1 2 .3 3.1.4 1.1.2 4.3.6 7 .9 2.8.3 6.6.8 8.5 1.1 1.9.2 5.5.7 8 1 10.4 1.3 17.1 2.9 28.7 6.6 16.4 5.2 19.6 5.8 32.3 6 22.1.3 43.8-8.4 70-28.2 4.1-3.1 8.8-6.9 10.4-8.5 3.1-3.1 6.7-10.3 7.2-14.4.4-3.6-1.4-9.8-4.1-13.8-4.8-7-23.3-25.1-39-38.1-5.5-4.6-11.1-9.3-12.5-10.5-6.5-5.4-11.9-9.3-29.6-21.1-10.4-7-19.1-12.9-19.3-13.1-.2-.2.4-1.9 1.3-3.6l1.8-3.3 19.1.2c10.6.1 19.5.2 19.8.2.4.1 1 2.2 1.5 4.8.4 2.7.8 5.1 1 5.5.1.5.2 1.6.3 2.5.3 3.6 1.7 4.1 11.6 4.8 20.7 1.5 26-3.2 30-26 .3-1.7.8-5.5 1.1-8.6l.5-5.5H310c-33.6.1-53.7.5-56.8 1.2zm-162.4 3.2c-7.1.1-12.8.4-12.8.5 0 .1 1.5 4 3.3 8.7 4.1 10.5 4.6 17.3 1.8 22.8-4.2 8.2-18.8 19.5-42.6 33l-12 6.8-4.1 8c-2.2 4.5-4.6 10.7-5.4 14-.8 3.2-1.4 6.1-1.5 6.4-2.5 9.4-2.1 30.2.7 35.4 3.5 6.5 5.8 7 34.3 7 18.6.1 22-.2 29.4-2.2 13.2-3.4 20.4-7.6 29.8-16.8 11.2-11.1 13.4-11.4 14.9-1.8.3 2 .9 4.7 1.4 5.8.4 1.2.8 2.4.8 2.9 0 .4.6 3.2 1.3 6.2l1.2 5.5h19.6c10.8 0 22.8.2 26.6.3 8.7.4 12.9-.8 16.2-4.7 2.4-2.8 2.5-3.5 2-10.6-.5-6.6-15-85.1-16.1-86.8-.2-.4-.7-2.4-1-4.4-.6-4.1-4.4-21.3-5.2-24.1-.9-2.9-5.5-7.7-9.3-9.6-2.8-1.5-6.2-1.9-15.1-2.1-25.2-.4-46.1-.5-58.2-.2zm17.1 58.7c13.2 24.4 11.8 33.3-6.6 44.2-5.4 3.1-15.3 8.3-15.9 8.3-.4 0-.3-1.2.1-2.8.4-1.5.9-3.7 1.1-4.9.2-1.2 2-9.3 4-18s4.7-20.8 6-26.8c3.6-16.1 3.2-15.6 6.1-9.9 1.4 2.7 3.7 7.1 5.2 9.9zM570 479.7c9.1 10 10.8 17.8 5.7 26.5-4.3 7.2-15 15.9-30.9 25-15.9 9.2-21.1 13.3-27.2 21.3-5.5 7.1-6.7 13.4-7.1 35.5-.2 16.5.2 18.6 4.7 22.6 3.9 3.6 6.3 4.4 16 5.1 38.8 2.8 58-2.4 75.5-20.4 7.5-7.7 9.7-8.1 11.4-2.1.6 2.4 1.5 5.4 1.9 6.8.5 1.4 1.6 5.5 2.6 9.2.9 3.8 2.2 6.8 2.8 6.9 3.6.1 40.1.1 45.1-.1 6.8-.3 13.2-3.3 16.2-7.8 1.8-2.6 2-4.2 1-8.7-.3-1.1-.8-4-1.2-6.5-.8-4.9-1.2-7.2-2-11-.3-1.4-1-5.1-1.5-8.2-.6-3.2-1.3-7-1.6-8.4-.3-1.4-2.2-11.2-4.4-21.7-2.1-10.6-4.1-20.3-4.4-21.7-.2-1.4-1.4-6.8-2.6-12-1.2-5.2-2.3-10.4-2.5-11.5-3.3-15.3-3.9-16.8-6.7-19.5-1.6-1.5-4.8-3.3-7.1-3.8-2.6-.7-20.7-1.1-46.6-1.2l-42.4-.1 5.3 5.8zm29.7 51.1c8.5 13.6 11.2 25.3 7.7 32.8-2.4 5-9.3 10.6-18.7 15.3-8.7 4.3-10.9 4.9-10.2 2.8.2-.6.6-2.3.9-3.7.2-1.4 1.2-5.9 2.1-10 .9-4.1 1.8-8.6 2.1-10 1.1-5.5 7.5-34.6 8.1-36.4.5-2 .6-2 2 0 .8 1 3.5 5.2 6 9.2zM403 476.4c-.3 13 .2 138.1.5 138.6.3.4 13.4.7 29.2.6 38.7-.3 36.8 1 38.8-27.1.2-3.3.7-10.3 1-15.5.4-5.2.8-11.5 1-14 .2-2.5.6-9 1-14.5.3-5.5.8-13.4 1-17.5.3-4.1.7-11.1.9-15.5.3-4.4.8-12.7 1.2-18.5.3-5.8.7-12.1.8-14l.1-3.5-37.7-.1c-27.8-.2-37.8.1-37.8 1z"/></svg>