<?xml version="1.0" encoding="UTF-8" standalone="no"?><svg width="120" height="117" viewBox="0 0 120 117" xmlns="http://www.w3.org/2000/svg" xmlns:xlink="http://www.w3.org/1999/xlink"><svg width="18" height="11" viewBox="0 0 18 11" id="svg--arrow-bottom" x="18" y="90"><title>2</title><path d="M.37 2.152A1.26 1.26 0 1 1 2.15.37L9 7.217l6.848-6.85a1.26 1.26 0 0 1 1.783 1.784l-7.74 7.74a1.256 1.256 0 0 1-1.78 0L.37 2.152z" fill="#4A90E2" fill-rule="evenodd"/></svg><svg width="11" height="18" viewBox="0 0 11 18" id="svg--arrow-left" x="105" y="65"><title>4</title><path d="M8.11.37A1.26 1.26 0 1 1 9.89 2.15L3.042 9l6.85 6.848a1.26 1.26 0 1 1-1.783 1.783L.37 9.89a1.256 1.256 0 0 1 0-1.78L8.11.37z" fill="#4A90E2" fill-rule="evenodd"/></svg><svg width="11" height="18" viewBox="0 0 11 18" id="svg--arrow-right" x="94" y="65"><title>3</title><path d="M2.152.37A1.26 1.26 0 1 0 .37 2.15L7.217 9l-6.85 6.848a1.26 1.26 0 1 0 1.784 1.783l7.74-7.74a1.256 1.256 0 0 0 0-1.78L2.152.37z" fill="#4A90E2" fill-rule="evenodd"/></svg><svg width="18" height="11" viewBox="0 0 18 11" id="svg--arrow-up" y="90"><title>18</title><path d="M.37 8.11A1.26 1.26 0 1 0 2.15 9.89L9 3.042l6.848 6.85a1.26 1.26 0 0 0 1.783-1.783L9.89.37a1.256 1.256 0 0 0-1.78 0L.37 8.11z" fill="#4A90E2" fill-rule="evenodd"/></svg><svg width="32" height="30" viewBox="0 0 32 30" id="svg--basket-blue" y="35"><title>10</title><path d="M15.933 15.934a1.99 1.99 0 0 1-1.53-3.268L24.36.716a1.992 1.992 0 0 1 3.063 2.553l-9.96 11.95c-.393.47-.96.716-1.53.716zm15.934-1.992v1.992c0 1.1-.89 1.99-1.99 1.99l-1.993 11.952h-23.9L1.99 17.926A1.99 1.99 0 0 1 0 15.933v-1.992c0-1.1.892-1.992 1.992-1.992h11.713l-.067.08a2.99 2.99 0 0 0 2.295 4.9c.89 0 1.726-.39 2.296-1.074l3.253-3.906h8.393c1.1 0 1.99.89 1.99 1.992zm-22.904 6.97a.995.995 0 0 0-1.992 0v5.976a.995.995 0 0 0 1.993 0v-5.975zm3.983 0a.995.995 0 0 0-1.992 0v5.976a.995.995 0 0 0 1.992 0v-5.975zm3.983 0a.995.995 0 0 0-1.992 0v5.976a.995.995 0 0 0 1.99 0v-5.975zm3.983 0a.995.995 0 0 0-1.992 0v5.976a.995.995 0 0 0 1.993 0v-5.975zm3.983 0a.995.995 0 0 0-1.99 0v5.976a.995.995 0 0 0 1.99 0v-5.975z" fill="#4A90E2" fill-rule="evenodd"/></svg><svg width="32" height="31" viewBox="0 0 32 31" id="svg--basket-gray" x="58"><title>1</title><path d="M15.933 16.32c-.45 0-.902-.153-1.274-.464a1.99 1.99 0 0 1-.256-2.805L24.36 1.1a1.992 1.992 0 0 1 3.063 2.553l-9.96 11.95c-.393.47-.96.716-1.53.716zm15.934-1.993v1.992c0 1.1-.89 1.99-1.99 1.99l-1.993 11.95h-23.9L1.99 18.31A1.99 1.99 0 0 1 0 16.32v-1.993c0-1.1.892-1.992 1.992-1.992h11.713l-.067.08a2.99 2.99 0 0 0 2.295 4.9c.89 0 1.726-.39 2.296-1.074l3.253-3.905h8.393c1.1 0 1.99.89 1.99 1.992zm-22.904 6.97a.995.995 0 0 0-1.992 0v5.976a.995.995 0 0 0 1.993 0v-5.975zm3.983 0a.995.995 0 0 0-1.992 0v5.976a.995.995 0 0 0 1.992 0v-5.975zm3.983 0a.995.995 0 0 0-1.992 0v5.976a.995.995 0 0 0 1.99 0v-5.975zm3.983 0a.995.995 0 0 0-1.992 0v5.976a.995.995 0 0 0 1.993 0v-5.975zm3.983 0a.995.995 0 0 0-1.99 0v5.976a.995.995 0 0 0 1.99 0v-5.975z" fill="#D9DBDF" fill-rule="evenodd"/></svg><svg width="25" height="25" viewBox="0 0 25 25" id="svg--calendar" x="90" y="30"><title>5</title><path d="M22.917 2.344H19.53V.78a.78.78 0 0 0-1.56 0v1.564h-4.69V.78a.78.78 0 0 0-1.56 0v1.564H7.03V.78a.78.78 0 0 0-1.56 0v1.564H2.083C.934 2.344 0 3.276 0 4.427v18.49C0 24.066.933 25 2.084 25h20.833c1.15 0 2.083-.933 2.083-2.084V4.426c0-1.15-.932-2.082-2.083-2.082zm.52 20.572a.52.52 0 0 1-.52.52l-20.833.002a.52.52 0 0 1-.522-.522V4.426a.52.52 0 0 1 .522-.52H5.47V5.47a.78.78 0 0 0 1.56 0V3.905h4.69V5.47a.78.78 0 0 0 1.56 0V3.905h4.69V5.47a.78.78 0 0 0 1.56 0V3.905h3.387a.52.52 0 0 1 .52.52v18.49zM5.47 9.376h3.124v2.343H5.47V9.374zm0 3.905h3.124v2.345H5.47V13.28zm0 3.908h3.124v2.343H5.47v-2.343zm5.468 0h3.124v2.343h-3.124v-2.343zm0-3.907h3.124v2.345h-3.124V13.28zm0-3.905h3.124v2.344h-3.124V9.374zm5.468 7.813h3.125v2.343h-3.124v-2.343zm0-3.907h3.125v2.345h-3.124V13.28zm0-3.905h3.125v2.344h-3.124V9.374z" fill="#4A90E2" fill-rule="evenodd"/></svg><svg width="30" height="30" viewBox="0 0 30 30" id="svg--check" x="32" y="35"><title>11</title><rect x="706" y="507" width="30" height="30" rx="5" transform="translate(-706 -507)" stroke="#DFDEDE" fill="#FFF" fill-rule="evenodd"/></svg><svg width="30" height="30" viewBox="0 0 30 30" id="svg--check-active" x="90"><title>12</title><g fill="none" fill-rule="evenodd"><rect stroke="#DFDEDE" fill="#FFF" width="30" height="30" rx="5"/><path d="M25.71 10.307l-.974-.973c-.4-.4-1.055-.4-1.46 0l-10.2 10.205-5.343-5.345c-.4-.4-1.055-.4-1.46 0l-.972.973c-.4.4-.4 1.055 0 1.46l7.043 7.042a1.017 1.017 0 0 0 1.452 0L25.7 11.766c.41-.407.41-1.058.01-1.46z" fill="#4A90E2"/></g></svg><svg width="15" height="15" viewBox="0 0 15 15" id="svg--close-blue" x="27" y="101"><title>9</title><path d="M9.282 7.5L14.63 2.15A1.26 1.26 0 1 0 12.847.37L7.5 5.716 2.15.37A1.26 1.26 0 0 0 .37 2.15L5.716 7.5.37 12.846A1.26 1.26 0 0 0 2.15 14.63L7.5 9.282l5.347 5.348a1.26 1.26 0 1 0 1.783-1.783L9.282 7.5z" fill="#4990E2" fill-rule="evenodd"/></svg><svg width="15" height="15" viewBox="0 0 15 15" id="svg--close-gray" x="42" y="101"><title>22</title><path d="M9.282 7.5L14.63 2.15A1.26 1.26 0 1 0 12.847.37L7.5 5.716 2.15.37A1.26 1.26 0 0 0 .37 2.15L5.716 7.5.37 12.846A1.26 1.26 0 0 0 2.15 14.63L7.5 9.282l5.347 5.348a1.26 1.26 0 1 0 1.783-1.783L9.282 7.5z" fill="#D9D9D9" fill-rule="evenodd"/></svg><svg width="25" height="25" viewBox="0 0 25 25" id="svg--delete" x="62" y="35"><title>15</title><path d="M12.5 0C5.595 0 0 5.597 0 12.5S5.595 25 12.5 25 25 19.403 25 12.5 19.405 0 12.5 0zm5.792 16.083a1.56 1.56 0 0 1-1.105 2.667c-.4 0-.8-.153-1.104-.458L12.5 14.71 8.917 18.29a1.558 1.558 0 0 1-2.21 0 1.56 1.56 0 0 1 0-2.21l3.584-3.582L6.71 8.917a1.56 1.56 0 0 1 0-2.21 1.56 1.56 0 0 1 2.21 0l3.582 3.584 3.583-3.582a1.56 1.56 0 0 1 2.21 0c.61.61.61 1.598 0 2.21L14.708 12.5l3.582 3.583z" fill="#F0373E" fill-rule="evenodd"/></svg><svg width="25" height="25" viewBox="0 0 25 25" id="svg--edit" y="65"><title>13</title><path d="M12.5 25C19.404 25 25 19.404 25 12.5S19.404 0 12.5 0 0 5.596 0 12.5 5.596 25 12.5 25zm1.99-15.993l2.45 2.45-6.203 6.2-2.448-2.45 6.2-6.2zm4.308-.59l-1.093-1.094a1.084 1.084 0 0 0-1.53 0L15.126 8.37l2.45 2.45 1.22-1.22a.835.835 0 0 0 0-1.184zM7.008 18.65a.28.28 0 0 0 .336.333l2.73-.662-2.448-2.45-.62 2.78z" fill="#4A90E2" fill-rule="evenodd"/></svg><svg width="25" height="34" viewBox="0 0 25 34" id="svg--euro-black" x="33"><title>21</title><path d="M23.568 28.472a.736.736 0 0 0-.362-.507.72.72 0 0 0-.627-.048l-.122.048-.29.072-.447.11c-.168.04-.365.08-.59.12-.226.04-.464.076-.713.108-.25.032-.52.06-.81.085-.29.023-.578.036-.868.036-2.046 0-3.885-.552-5.52-1.654-1.633-1.104-2.837-2.597-3.61-4.48h9.346c.177 0 .338-.06.482-.18a.732.732 0 0 0 .266-.448l.58-2.705c.048-.242 0-.46-.145-.652a.755.755 0 0 0-.605-.29H8.452c-.05-1.095-.05-1.94 0-2.536h11.784c.435 0 .692-.21.773-.628l.578-2.753a.708.708 0 0 0-.17-.626.71.71 0 0 0-.602-.29H9.514c.805-1.804 2.013-3.22 3.623-4.25 1.61-1.03 3.43-1.546 5.457-1.546.065-.032.302-.024.712.024s.644.068.7.06c.056-.008.266.016.628.072l.544.085.422.083c.12.025.214.045.278.06l.097.025a.708.708 0 0 0 .918-.53l1.038-3.84a.8.8 0 0 0-.07-.58c-.146-.194-.307-.314-.484-.363A19.257 19.257 0 0 0 18.69 0c-3.606 0-6.83 1.03-9.67 3.09-2.842 2.062-4.802 4.782-5.88 8.163H.772a.752.752 0 0 0-.556.217.753.753 0 0 0-.217.556v2.753c0 .224.072.41.217.554.145.145.33.217.556.217H2.39a26.11 26.11 0 0 0-.024 2.537H.773c-.21 0-.39.076-.544.23a.743.743 0 0 0-.23.542v2.728c0 .21.077.39.23.544.152.152.333.228.543.228h2.294c1.014 3.558 2.93 6.388 5.747 8.488C11.632 32.95 14.924 34 18.69 34c.307 0 .617-.008.93-.024.315-.016.61-.04.882-.073a23.145 23.145 0 0 0 1.534-.23c.217-.04.422-.08.615-.12a5.44 5.44 0 0 0 .52-.132 5.17 5.17 0 0 1 .387-.107 1.19 1.19 0 0 0 .253-.085l.12-.024a.76.76 0 0 0 .412-.35.708.708 0 0 0 .072-.543l-.846-3.838z" fill="#292829" fill-rule="evenodd"/></svg><svg width="12" height="16" viewBox="0 0 12 16" id="svg--euro-blue" y="101"><title>8</title><path d="M11.51 15.205l-.398-1.807a.346.346 0 0 0-.466-.26l-.057.02-.138.035c-.06.015-.13.033-.21.05a6.95 6.95 0 0 1-.994.148c-.136.013-.273.02-.41.02-.96 0-1.827-.26-2.596-.78a4.577 4.577 0 0 1-1.7-2.107h4.4c.082 0 .158-.028.226-.085a.345.345 0 0 0 .125-.21l.273-1.273a.37.37 0 0 0-.068-.307.355.355 0 0 0-.284-.137H3.998a10.222 10.222 0 0 1 0-1.192h5.545c.205 0 .326-.098.364-.295l.273-1.296a.333.333 0 0 0-.08-.295.335.335 0 0 0-.284-.137H4.498a4.49 4.49 0 0 1 1.705-2c.757-.484 1.613-.727 2.568-.727.03-.015.143-.01.336.012.193.022.303.032.33.028.026-.004.125.008.295.034l.257.04.198.04c.057.01.1.02.13.028l.047.01a.333.333 0 0 0 .432-.25l.488-1.805c.023-.1.01-.19-.034-.273a.432.432 0 0 0-.227-.17A9.062 9.062 0 0 0 8.817 0C7.12 0 5.602.485 4.266 1.455c-1.338.97-2.26 2.25-2.768 3.84H.385a.354.354 0 0 0-.262.103.354.354 0 0 0-.102.26v1.296c0 .106.035.194.103.262a.354.354 0 0 0 .262.102h.76c-.022.364-.026.76-.01 1.193h-.75a.35.35 0 0 0-.256.11.35.35 0 0 0-.11.255v1.284c0 .097.037.182.11.254a.35.35 0 0 0 .255.108h1.08c.476 1.674 1.378 3.006 2.704 3.994C5.494 15.506 7.043 16 8.815 16a8.21 8.21 0 0 0 .853-.046 10.892 10.892 0 0 0 1.01-.164c.09-.02.172-.04.244-.063.072-.023.133-.04.182-.05a.56.56 0 0 0 .12-.04l.056-.012a.357.357 0 0 0 .193-.165.333.333 0 0 0 .034-.255z" fill="#4A90E2" fill-rule="evenodd"/></svg><svg width="24" height="24" viewBox="0 0 24 24" id="svg--info" x="50" y="65"><title>6</title><path d="M11.812 0C5.29 0 0 5.29 0 11.812c0 6.523 5.29 11.813 11.812 11.813 6.523 0 11.813-5.29 11.813-11.813C23.625 5.29 18.335 0 11.812 0zm2.46 18.307c-.61.24-1.093.422-1.456.548-.362.126-.783.19-1.262.19-.736 0-1.31-.18-1.717-.54a1.74 1.74 0 0 1-.61-1.367c0-.215.014-.435.044-.66.032-.223.08-.475.148-.758l.76-2.688c.068-.258.126-.503.172-.73.046-.23.068-.442.068-.634 0-.342-.07-.582-.212-.717-.143-.134-.412-.2-.813-.2-.196 0-.398.03-.605.09-.205.063-.383.12-.53.176l.202-.828c.498-.203.975-.377 1.43-.52a4.225 4.225 0 0 1 1.29-.22c.73 0 1.295.18 1.692.53.395.354.594.813.594 1.377 0 .117-.014.323-.04.617a4.13 4.13 0 0 1-.153.81l-.757 2.68c-.062.216-.117.462-.167.737-.05.274-.074.484-.074.625 0 .356.08.6.24.728.157.13.434.194.826.194a2.4 2.4 0 0 0 .626-.097c.232-.064.4-.12.506-.17l-.203.827zM14.136 7.43a1.807 1.807 0 0 1-1.275.49c-.496 0-.924-.163-1.28-.49a1.57 1.57 0 0 1-.533-1.194c0-.465.18-.865.532-1.196a1.812 1.812 0 0 1 1.28-.497c.497 0 .923.165 1.275.497.353.33.53.73.53 1.196 0 .467-.177.865-.53 1.193z" fill="#4A90E2" fill-rule="evenodd"/></svg><svg width="25" height="25" viewBox="0 0 25 25" id="svg--plus" x="25" y="65"><title>7</title><path d="M12.5 0C5.595 0 0 5.596 0 12.5 0 19.402 5.596 25 12.5 25 19.402 25 25 19.402 25 12.5 25 5.595 19.402 0 12.5 0zm7.225 14.095a.684.684 0 0 1-.684.683H14.78v4.263a.684.684 0 0 1-.683.685h-3.19a.684.684 0 0 1-.685-.684V14.78H5.958a.684.684 0 0 1-.684-.683v-3.19c0-.38.306-.685.684-.685h4.262V5.958c0-.378.306-.684.684-.684h3.19c.378 0 .684.306.684.684v4.262h4.263c.38 0 .685.306.685.684v3.19z" fill="#4A90E2" fill-rule="evenodd"/></svg><svg width="33" height="35" viewBox="0 0 33 35" id="svg--rub-black"><title>rub</title><path d="M1.662 29.38H7.22v4.766a.77.77 0 0 0 .224.57c.15.15.34.224.57.224h4.145c.214 0 .4-.075.557-.224a.75.75 0 0 0 .235-.57V29.38h12.532c.232 0 .422-.073.57-.222.15-.15.225-.34.225-.57V25.41a.77.77 0 0 0-.225-.57.772.772 0 0 0-.57-.224H12.95v-2.928h8.437c3.308 0 6.008-1.008 8.102-3.027 2.092-2.016 3.14-4.622 3.14-7.816 0-3.192-1.048-5.798-3.14-7.817C27.4 1.01 24.698 0 21.39 0H8.013a.775.775 0 0 0-.57.223.776.776 0 0 0-.224.57v15.61H1.662a.752.752 0 0 0-.57.236.785.785 0 0 0-.225.557v3.697c0 .232.074.422.224.57.15.15.34.224.572.224H7.22v2.928H1.662a.772.772 0 0 0-.57.224.772.772 0 0 0-.225.57v3.177c0 .232.074.422.224.57.15.15.34.224.572.224zm11.29-24.094h7.94c1.754 0 3.17.513 4.244 1.54 1.076 1.024 1.613 2.365 1.613 4.018 0 1.655-.538 2.996-1.614 4.02-1.075 1.027-2.49 1.54-4.243 1.54h-7.94V5.286z" fill="#292929" fill-rule="evenodd"/></svg><svg width="15" height="16" viewBox="0 0 15 16" id="svg--rub-blue" x="12" y="101"><title>14</title><path d="M.364 13.454H2.91v2.182a.352.352 0 0 0 .363.364H5.17a.36.36 0 0 0 .364-.364v-2.182h5.74a.354.354 0 0 0 .26-.102.353.353 0 0 0 .102-.26v-1.456a.353.353 0 0 0-.102-.26.354.354 0 0 0-.26-.103h-5.74v-1.34h3.864c1.515 0 2.75-.463 3.71-1.388.958-.923 1.437-2.117 1.437-3.58 0-1.46-.48-2.654-1.437-3.58C12.148.464 10.913 0 9.398 0H3.273a.355.355 0 0 0-.262.102.355.355 0 0 0-.1.262V7.51H.363A.36.36 0 0 0 0 7.875V9.57c0 .106.034.193.102.26a.353.353 0 0 0 .262.104H2.91v1.34H.363a.354.354 0 0 0-.262.103.354.354 0 0 0-.102.26v1.456c0 .107.034.194.102.262a.353.353 0 0 0 .262.102zM5.534 2.42H9.17c.803 0 1.45.235 1.943.705.493.47.74 1.084.74 1.84 0 .76-.247 1.373-.74 1.842-.492.47-1.14.705-1.943.705H5.534v-5.09z" fill="#4A90E2" fill-rule="evenodd"/></svg><svg width="20" height="20" viewBox="0 0 20 20" id="svg--settings" x="74" y="65"><title>17</title><path d="M19.27 8.544l-1.982-.33a7.463 7.463 0 0 0-.628-1.677l1.268-1.573a.874.874 0 0 0-.026-1.13l-.788-.888a.875.875 0 0 0-1.12-.16L14.298 3.85a7.455 7.455 0 0 0-2.5-1.127L11.466.73a.874.874 0 0 0-.863-.73H9.417a.872.872 0 0 0-.862.73l-.333 1.994a7.45 7.45 0 0 0-2.103.873l-1.613-1.15a.876.876 0 0 0-1.127.094l-.84.84a.875.875 0 0 0-.09 1.127L3.6 6.122a7.47 7.47 0 0 0-.866 2.087L.73 8.543a.875.875 0 0 0-.73.863v1.186c0 .43.31.794.73.863l2.004.335c.152.615.37 1.2.664 1.745L2.135 15.1a.875.875 0 0 0 .027 1.13l.787.887c.285.32.76.387 1.12.16l1.72-1.08c.726.497 1.55.863 2.432 1.08l.333 1.992c.068.42.434.73.862.73h1.187c.43 0 .794-.31.863-.73l.332-1.993a7.44 7.44 0 0 0 2.078-.86l1.68 1.2c.345.248.823.21 1.125-.094l.84-.84a.872.872 0 0 0 .092-1.126L16.42 13.88c.39-.64.685-1.343.868-2.093l1.98-.33a.873.873 0 0 0 .733-.864V9.407a.875.875 0 0 0-.73-.863zM10.03 13.75a3.75 3.75 0 1 1 0-7.502 3.75 3.75 0 0 1 0 7.502z" fill="#D9DBDF" fill-rule="evenodd"/></svg></svg>