<svg width="19" height="23" viewBox="0 0 19 23" fill="none" xmlns="http://www.w3.org/2000/svg">
<path d="M19 18.2H15.8V15H14.2V18.2H11V19.8H14.2V23H15.8V19.8H19V18.2Z" fill="#272727"/>
<path d="M7.99987 21.3572H1.59997V1.64312H7.99987V6.57163C8.00114 7.00694 8.17011 7.42404 8.46989 7.73185C8.76967 8.03966 9.17589 8.21317 9.59984 8.21447H14.3998V11.5001H15.9997V6.57163C16.0026 6.46367 15.9826 6.35637 15.9411 6.25711C15.8997 6.15785 15.8378 6.06899 15.7597 5.99664L10.1598 0.246705C10.0894 0.166489 10.0029 0.102916 9.90618 0.0603719C9.8095 0.0178279 9.70499 -0.0026744 9.59984 0.000279315H1.59997C1.17602 0.0015794 0.769799 0.175081 0.47002 0.482891C0.170241 0.790702 0.00126616 1.20781 0 1.64312V21.3572C0.00126616 21.7925 0.170241 22.2096 0.47002 22.5174C0.769799 22.8252 1.17602 22.9987 1.59997 23H7.99987V21.3572ZM9.59984 1.97168L14.0798 6.57163H9.59984V1.97168Z" fill="#272727"/>
</svg>
