<svg width="25" height="25" viewBox="0 0 25 25" fill="none" xmlns="http://www.w3.org/2000/svg">
<g clip-path="url(#clip0_539_8431)">
<path d="M17.1879 3.90674C17.1878 2.99023 17.51 2.10286 18.098 1.39988C18.6861 0.696907 19.5026 0.22309 20.4047 0.0613299C21.3069 -0.10043 22.2371 0.0601678 23.0328 0.515026C23.8285 0.969884 24.4389 1.69004 24.7572 2.54949C25.0756 3.40894 25.0816 4.35296 24.7742 5.21639C24.4668 6.07981 23.8656 6.80766 23.0757 7.27259C22.2859 7.73752 21.3577 7.90992 20.4536 7.75963C19.5495 7.60935 18.727 7.14594 18.1301 6.45049L7.63323 11.3255C7.87454 12.0902 7.87454 12.9107 7.63323 13.6755L18.1301 18.5505C18.7611 17.8166 19.6421 17.3432 20.6023 17.2218C21.5625 17.1005 22.5335 17.3399 23.3273 17.8938C24.121 18.4476 24.6808 19.2764 24.8983 20.2194C25.1158 21.1625 24.9755 22.1528 24.5045 22.9983C24.0335 23.8438 23.2653 24.4843 22.349 24.7957C21.4326 25.1072 20.4333 25.0673 19.5446 24.6839C18.6559 24.3006 17.9412 23.6009 17.539 22.7206C17.1368 21.8403 17.0757 20.842 17.3676 19.9192L6.87073 15.0442C6.35109 15.6498 5.65846 16.0817 4.88601 16.2819C4.11355 16.482 3.29833 16.4408 2.55001 16.1637C1.80168 15.8867 1.15616 15.3871 0.70027 14.7322C0.244381 14.0773 0 13.2985 0 12.5005C0 11.7025 0.244381 10.9237 0.70027 10.2688C1.15616 9.61388 1.80168 9.11429 2.55001 8.83724C3.29833 8.56019 4.11355 8.51896 4.88601 8.71911C5.65846 8.91925 6.35109 9.35116 6.87073 9.95674L17.3676 5.08174C17.2481 4.70153 17.1875 4.30528 17.1879 3.90674Z" fill="#272727"/>
</g>
<defs>
<clipPath id="clip0_539_8431">
<rect width="25" height="25" fill="white"/>
</clipPath>
</defs>
</svg>
