<svg width="32" height="32" viewBox="0 0 32 32" fill="none" xmlns="http://www.w3.org/2000/svg">
<path d="M31.2938 15.2914C31.2966 15.2914 31.2987 15.2914 31.3015 15.2914C31.4964 15.2914 31.6822 15.2096 31.8142 15.0664C31.9483 14.9211 32.0147 14.7262 31.9972 14.5292C31.2959 6.8148 25.1886 0.705023 17.4739 0.00225125C17.2783 -0.0131175 17.0813 0.0504533 16.936 0.185279C16.7907 0.319407 16.7097 0.508722 16.7118 0.70642C16.8333 10.9588 18.1857 15.1482 31.2938 15.2914ZM31.2938 16.7081C18.1857 16.8513 16.834 21.0407 16.7125 31.293C16.7104 31.4907 16.7914 31.6801 16.9367 31.8142C17.0667 31.9336 17.2364 32 17.411 32C17.432 32 17.4536 31.9993 17.4746 31.9972C25.1893 31.2944 31.2966 25.1854 31.9972 17.4702C32.0147 17.2732 31.949 17.0783 31.8142 16.933C31.6794 16.7877 31.4915 16.7158 31.2938 16.7081ZM14.4793 0.00574423C6.78905 0.728774 0.701286 6.83716 0.00344559 14.5306C-0.0140179 14.7276 0.0516449 14.9225 0.186463 15.0678C0.318487 15.211 0.504997 15.2921 0.69919 15.2921C0.701985 15.2921 0.704779 15.2921 0.707573 15.2921C13.7723 15.1419 15.1212 10.9546 15.2442 0.709214C15.2463 0.511516 15.1645 0.321502 15.0192 0.187375C14.8725 0.0532477 14.6763 -0.0124188 14.4793 0.00574423ZM0.706874 16.7074C0.489629 16.6829 0.319185 16.7863 0.185764 16.9316C0.0516449 17.0769 -0.0147164 17.2718 0.0027471 17.4688C0.700588 25.1623 6.78905 31.2707 14.4793 31.9937C14.5009 31.9958 14.5233 31.9965 14.5449 31.9965C14.7196 31.9965 14.8886 31.9308 15.0185 31.8114C15.1638 31.6773 15.2456 31.4872 15.2435 31.2895C15.1205 21.0449 13.7723 16.8576 0.706874 16.7074Z" fill="#C92140"/>
</svg>
