<svg width="40" height="30" viewBox="0 0 40 30" fill="none" xmlns="http://www.w3.org/2000/svg">
<rect width="40" height="30" rx="5" fill="#C92140"/>
<path d="M18.7021 15.9336C19.8037 15.0489 20.5106 13.8384 20.5106 12.319V11.6581C20.5106 8.98997 18.3385 7.02961 15.66 7.02961L8 7L8.00459 21.9716L11.6226 22V16.9184H15.3414L17.7656 22H22L18.7021 15.9336ZM16.8136 12.1374C16.8136 13.1999 15.9483 13.8029 14.8812 13.8029H11.6228V10.2075H14.8812C15.9483 10.2075 16.8136 10.9539 16.8136 12.0166V12.1374Z" fill="white"/>
<path d="M27.8723 11V17.2959C27.8723 18.3334 27.5126 19.0349 26.5242 19.0349H26.4752C25.4874 19.0349 25.1274 18.3334 25.1274 17.2959V11H22V17.5362C22 20.0013 23.0268 22 26.149 22H26.7492C30.0368 22 31 20.0013 31 17.5362V11H27.8723Z" fill="white"/>
</svg>
