<svg width="30" height="30" viewBox="0 0 30 30" fill="none" xmlns="http://www.w3.org/2000/svg">
<path d="M5.87833 0C2.64537 0 0 2.64537 0 5.87833V24.1217C0 27.3546 2.64537 30 5.87833 30H24.1217C27.3546 30 30 27.3546 30 24.1217V5.87833C30 2.64537 27.3546 0 24.1217 0H5.87833V0ZM9.24355 6.76883H15.1612C16.3902 6.76883 17.3238 6.81379 17.9574 6.91038C18.5911 7.00214 19.1863 7.19882 19.7394 7.49812C20.3379 7.82055 20.7875 8.25475 21.0836 8.79264C21.3797 9.33371 21.5298 9.95563 21.5298 10.6627C21.5298 11.4799 21.3259 12.2064 20.9149 12.844C20.5078 13.4817 19.943 13.9506 19.2248 14.2538V14.341C20.2583 14.5605 21.0872 15.002 21.7089 15.674C22.3315 16.3467 22.6425 17.2523 22.6425 18.3896C22.6425 19.222 22.4853 19.9562 22.1701 20.5859C21.8549 21.2155 21.4328 21.7344 20.899 22.1494C20.2693 22.6442 19.5781 22.9934 18.8208 23.2049C18.0682 23.4156 17.1122 23.5208 15.9487 23.5208H9.24358V6.76886L9.24355 6.76883ZM13.4289 9.83969V13.3849H13.9586C14.6768 13.3849 15.1843 13.3775 15.4724 13.3624C15.7606 13.3473 16.0604 13.2701 16.3676 13.128C16.7012 12.9708 16.9362 12.7525 17.0622 12.4756C17.1891 12.1955 17.2544 11.872 17.2544 11.5073C17.2544 11.2352 17.1852 10.9581 17.0463 10.674C16.9082 10.3899 16.6937 10.1822 16.3976 10.0553C16.1215 9.93241 15.795 9.86762 15.4143 9.85565C15.0344 9.84365 14.47 9.83972 13.7214 9.83972H13.4289L13.4289 9.83969ZM13.4289 16.2542V20.4481H13.6558C14.7508 20.4481 15.507 20.4398 15.9252 20.4246C16.3434 20.4095 16.7742 20.3102 17.2075 20.1219C17.5922 19.9567 17.8684 19.7146 18.0456 19.3954C18.222 19.0769 18.3099 18.7157 18.3099 18.3127C18.3099 17.7939 18.2074 17.3909 17.9959 17.0988C17.7852 16.8035 17.47 16.5842 17.051 16.4342C16.7972 16.3344 16.4437 16.2804 15.9983 16.2692C15.553 16.258 14.9545 16.2542 14.2051 16.2542H13.429H13.4289Z" fill="#C92140"/>
</svg>
