<svg width="287" height="283" viewBox="0 0 287 283" fill="none" xmlns="http://www.w3.org/2000/svg">
<path opacity="0.6" d="M144.501 86.6694L144.911 88.0231L145.443 86.7128L177.82 7.00433L166.605 92.0492L166.419 93.4642L167.448 92.475L229.83 32.4983L184.535 105.841L183.776 107.07L185.132 106.573L266.717 76.6868L195.186 125.66L193.986 126.482L195.438 126.571L282.126 131.926L196.716 148.077L195.29 148.347L196.58 149.013L273.401 188.682L188.863 169.215L187.464 168.892L188.36 170.014L242.036 237.158L172.986 185.419L171.85 184.567L172.202 185.943L193.436 268.962L151.831 193.89L151.146 192.655L150.901 194.046L136.006 278.573L129.052 193.164L128.937 191.749L128.14 192.924L79.6993 264.327L108.588 183.365L109.071 182.012L107.853 182.773L34.26 228.705L93.9783 166.184L94.9807 165.134L93.5446 165.344L7.53052 177.882L87.7514 144.594L89.0952 144.036L87.6925 143.65L4.11359 120.636L90.9839 122.329L92.4283 122.358L91.3104 121.443L24.6033 66.8451L103.114 103.242L104.409 103.842L103.772 102.565L65.4776 25.806L122.044 90.6289L122.974 91.6944L122.92 90.2812L119.679 4.63378L144.501 86.6694Z" stroke="#C92140"/>
</svg>
