<svg width="144" height="283" viewBox="0 0 144 283" fill="none" xmlns="http://www.w3.org/2000/svg">
<path d="M1.50114 86.6694L1.91072 88.0231L2.44295 86.7128L34.8205 7.00433L23.6055 92.0492L23.4189 93.4642L24.4477 92.475L86.8298 32.4983L41.5347 105.841L40.7756 107.07L42.1321 106.573L123.717 76.6868L52.186 125.66L50.9855 126.482L52.4377 126.571L139.126 131.926L53.7164 148.077L52.2904 148.347L53.5799 149.013L130.401 188.682L45.863 169.215L44.4635 168.892L45.3602 170.014L99.0362 237.158L29.9861 185.419L28.8501 184.567L29.2019 185.943L50.4359 268.962L8.83079 193.89L8.14614 192.655L7.90103 194.046L-6.99351 278.573L-13.9476 193.164L-14.0628 191.749L-14.8597 192.924L-63.3007 264.327L-34.4118 183.365L-33.9292 182.012L-35.1475 182.773L-108.74 228.705L-49.0217 166.184L-48.0193 165.134L-49.4554 165.344L-135.469 177.882L-55.2486 144.594L-53.9048 144.036L-55.3075 143.65L-138.886 120.636L-52.0161 122.329L-50.5717 122.358L-51.6896 121.443L-118.397 66.8451L-39.8856 103.242L-38.5908 103.842L-39.2279 102.565L-77.5224 25.806L-20.9561 90.6289L-20.0262 91.6944L-20.0797 90.2812L-23.321 4.63378L1.50114 86.6694Z" stroke="#C92140"/>
</svg>
