<svg width="261" height="61" viewBox="0 0 261 61" fill="none" xmlns="http://www.w3.org/2000/svg">
<line opacity="0.35" x1="0.5" y1="1.35934e-08" x2="0.499996" y2="61" stroke="#272727"/>
<line opacity="0.35" x1="13.5" y1="4" x2="13.5" y2="60" stroke="#272727"/>
<line opacity="0.35" x1="156.5" y1="3" x2="156.5" y2="59" stroke="#272727"/>
<line opacity="0.35" x1="26.5" y1="6" x2="26.5" y2="55" stroke="#272727"/>
<line opacity="0.35" x1="169.5" y1="6" x2="169.5" y2="54" stroke="#272727"/>
<line opacity="0.35" x1="39.5" y1="12" x2="39.5" y2="50" stroke="#272727"/>
<line opacity="0.35" x1="182.5" y1="11" x2="182.5" y2="49" stroke="#272727"/>
<line opacity="0.35" x1="52.5" y1="12" x2="52.5" y2="50" stroke="#272727"/>
<line opacity="0.35" x1="195.5" y1="11" x2="195.5" y2="49" stroke="#272727"/>
<line opacity="0.35" x1="65.5" y1="6" x2="65.5" y2="55" stroke="#272727"/>
<line opacity="0.35" x1="208.5" y1="6" x2="208.5" y2="54" stroke="#272727"/>
<line opacity="0.35" x1="78.5" y1="1" x2="78.5" y2="60" stroke="#272727"/>
<line opacity="0.35" x1="221.5" y1="1" x2="221.5" y2="59" stroke="#272727"/>
<line opacity="0.35" x1="91.5" y1="1" x2="91.5" y2="60" stroke="#272727"/>
<line opacity="0.35" x1="234.5" y1="1" x2="234.5" y2="59" stroke="#272727"/>
<line opacity="0.35" x1="104.5" y1="6" x2="104.5" y2="55" stroke="#272727"/>
<line opacity="0.35" x1="247.5" y1="6" x2="247.5" y2="54" stroke="#272727"/>
<line opacity="0.35" x1="117.5" y1="12" x2="117.5" y2="50" stroke="#272727"/>
<line opacity="0.35" x1="260.5" y1="11" x2="260.5" y2="49" stroke="#272727"/>
<line opacity="0.35" x1="130.5" y1="12" x2="130.5" y2="50" stroke="#272727"/>
<line opacity="0.35" x1="143.5" y1="1" x2="143.5" y2="60" stroke="#272727"/>
</svg>
